/* XPM */
static char *ZXhpdA__[] = {
/* columns rows colors chars-per-pixel */
"32 32 5 1 ",
"  c #3E734E",
". c #4D9262",
"X c #5B6EE1",
"o c #639BFF",
"O c #5FCDE4",
/* pixels */
"XOOXXX .  X   XXXXXX   XXXXXX  X",
" XOOOOX XXOXXXOOOOOOXXXOOOOOOXXO",
" XOOOOOXOOOOOOOOOOOOOOOOOOOOOOOO",
"XOOOXXOOOOXOOOXXXXXXOOOOXXXXOOOX",
"XOOXXXXXXXXXXXXXXXXXXXXXXXXXXOOX",
"XOOXXoXXXXoXXXooooooXXXXoooXXOOX",
"XOOXXoooooooooooooooooooooXXOOX ",
"XOOXXoooooooooooooooooooooXXOX .",
"XOOOXXooooooooooooooooooooXXOOX ",
" XOOXXooooooooooooooooooooXXOOX ",
" XOOXXoooooooooooooooooooooXXOOX",
" XOOXXooooooooooooooooooooXXOOX ",
"XOOXXoooooooooooooooooooooXXOOX ",
"XOOXXoooooooooooooooooooooXXOOX ",
"XOOXXooooooooooooooooooooooXXOOX",
"XOOXXooooooooooooooooooooooXXOOX",
"XOOXXooooooooooooooooooooooXXOOX",
"XOOXXooooooooooooooooooooooXXOOX",
" XOOXXoooooooooooooooooooooXXOOX",
" XOOXXoooooooooooooooooooooXXOOX",
" XOOXXooooooooooooooooooooXXOOX ",
"XOOXXoooooooooooooooooooooXXOOX ",
" XOOXXooooooooooooooooooooXXOOX ",
" XOOXXooooooooooooooooooooXXOOOX",
". XOXXoooooooooooooooooooooXXOOX",
" XOOXXoooooooooooooooooooooXXOOX",
"XOOXXooooooooooooooooooooooXXOOX",
"XOOXXoooooooooooooooooooooooXOOX",
"XOOXoooooOOOooooooOOOOOOOOoooOOX",
"OOOOOOOOOOOOOOOOOOOOOOOOXOOOOOX ",
"OOOOOOOOOXXXOOOOOOXXXOXX.XOOOOO ",
"X..XXXXXX...XXXXXX...X....XXXOOX"
};
