/* XPM */
static char *result[] = {
/* columns rows colors chars-per-pixel */
"32 32 190 2 ",
"   c #040401",
".  c #070700",
"X  c #040402",
"o  c #060604",
"O  c #070705",
"+  c #0C0B00",
"@  c #0E0D00",
"#  c #0E0E00",
"$  c #0F0E00",
"%  c #0F0E02",
"&  c #0F0F03",
"*  c gray3",
"=  c #090909",
"-  c #0D0D0A",
";  c #131206",
":  c #16160D",
">  c gray7",
",  c #161616",
"<  c gray10",
"1  c gray12",
"2  c #222000",
"3  c #272500",
"4  c #2E2B00",
"5  c #302D00",
"6  c #373400",
"7  c #3C3900",
"8  c #3C3804",
"9  c #343317",
"0  c #252525",
"q  c #2D2C28",
"w  c #2C2C2C",
"e  c #313131",
"r  c gray20",
"t  c gray23",
"y  c #413D00",
"u  c #423E00",
"i  c #433F00",
"p  c #4C4800",
"a  c #595400",
"s  c #5C5700",
"d  c #44411C",
"f  c #656001",
"g  c #6B6500",
"h  c #767000",
"j  c #7D7700",
"k  c #7F7900",
"l  c #6A6415",
"z  c #444444",
"x  c #515049",
"c  c #555555",
"v  c #585857",
"b  c #686868",
"n  c #6C6C6C",
"m  c #727162",
"M  c #7B7961",
"N  c #817900",
"B  c #807B00",
"V  c #847C00",
"C  c #857F00",
"Z  c #867F00",
"A  c #877F0F",
"S  c #8A8400",
"D  c #8B8600",
"F  c #9B920C",
"G  c #A19800",
"H  c #A49C00",
"J  c #A1990B",
"K  c #AAA101",
"L  c #ADA600",
"P  c #B0A601",
"I  c #B2A900",
"U  c #B6AD00",
"Y  c #B0A70C",
"T  c #BAB100",
"R  c #948E2B",
"E  c #BCB328",
"W  c #C1B900",
"Q  c #C3BD00",
"!  c #C5BC00",
"~  c #C0B82F",
"^  c #CBC400",
"/  c #D0C800",
"(  c #D1C800",
")  c #D0C900",
"_  c #D4C901",
"`  c #D7CD04",
"'  c #DAD200",
"]  c #E4DC00",
"[  c #E6DD00",
"{  c #E9DF00",
"}  c #EADF00",
"|  c #ECE200",
" . c #EDE200",
".. c #EEE600",
"X. c #F3E900",
"o. c #F1EA00",
"O. c #F5EA00",
"+. c #F7EC00",
"@. c #F7ED00",
"#. c #F8ED00",
"$. c #F9ED00",
"%. c #F9EE00",
"&. c #FBEE00",
"*. c #F9ED02",
"=. c #F0E70A",
"-. c #FBF300",
";. c #FCF000",
":. c #FDF000",
">. c #FFF100",
",. c #FFF101",
"<. c #FDF200",
"1. c #FEF200",
"2. c #FFF200",
"3. c #FEF300",
"4. c #FFF300",
"5. c #FFF102",
"6. c #FFF103",
"7. c #FCF202",
"8. c #FFF400",
"9. c #FFF500",
"0. c #FEF600",
"q. c #FFF600",
"w. c #FFF104",
"e. c #FFF105",
"r. c #FFF304",
"t. c #FFF107",
"y. c #FFF306",
"u. c #FFF405",
"i. c #FFF406",
"p. c #FFF506",
"a. c #FEF407",
"s. c #FFF507",
"d. c #FCF209",
"f. c #FFF20A",
"g. c #FEF408",
"h. c #FFF508",
"j. c #FFF20C",
"k. c #EEE91A",
"l. c #FFF212",
"z. c #FFF213",
"x. c #FFF214",
"c. c #FFF21A",
"v. c #FFF21B",
"b. c #FFF31F",
"n. c #DFD83E",
"m. c #EDE926",
"M. c #EFEC24",
"N. c #E9E42E",
"B. c #E9E62E",
"V. c #FFF320",
"C. c #FFF322",
"Z. c #FFF327",
"A. c #FFF328",
"S. c #FFF32C",
"D. c #E9E230",
"F. c #E8E533",
"G. c #EAE831",
"H. c #EBEA33",
"J. c #ECEA33",
"K. c #EEED36",
"L. c #EAE63B",
"P. c #F5ED31",
"I. c #FDF331",
"U. c #FFF532",
"Y. c #FEF336",
"T. c #8B8A6E",
"R. c #A4A164",
"E. c #C1BD7A",
"W. c #E6E64A",
"Q. c #EFEB4D",
"!. c #FEF448",
"~. c #FEF54F",
"^. c #FFF75C",
"/. c #FEF65F",
"(. c #EAE569",
"). c #F7F17B",
"_. c #FDF67F",
"`. c #838383",
"'. c gray52",
"]. c #8B8B8B",
"[. c #939393",
"{. c #979797",
"}. c #B0AE95",
"|. c #CDC987",
" X c #FEF88B",
".X c #FDF796",
"XX c #FEFBA1",
"oX c #FCF7A8",
"OX c #FBFBBD",
"+X c None",
/* pixels */
"+X+X+X+X+X+X+X+X+X+X+X+X+X+X+X+X+X+X+X+X+X+X+X+X+X+X+X+X+X+X+X+X",
"+X+X+X+X+X+X+X+X+X+X+X+X+X+X+X+X+X+X+X+X+X+X+X+X+X+X+X+X+X+X+X+X",
"+X+X+X+X+X+X+X+X+X+X+X+X+X+X+X+X+X+X+X+X+X+X+X+X+X+X+X+X+X+X+X+X",
"+X+X+XOX+X+X+X+X+X+X+X+X+X+X+X+X+X+X+X+X+X+X+X+X+X+X+X+X+X+X+X+X",
"+X+X+X^.K.+X+X+X+X+X+X+X+X+X+X+X+X+X+X+X+X+X+X+X+X+X+XXXD.|.+X+X",
"+X+X.Xz.a.H.+X+X+X+X+X+X+X+X+X+X+X+X+X+X+X+X+X+X+X+X+XC.*.~ +X+X",
"+X+X~.e.>.p.m.+X+X+X+X+X+X+X+X+X+X+X+X+X+X+X+X+X+X Xv.>.2.` R.+X",
"+XoXZ.,.>.>.p.N.+X+X+X+X+X+X+X+X+X+X+X+X+X+X+X+X+Xb.,.>.2. .R +X",
"+X_.x.>.>.>.>.s.+X+X+X+X+X+X+X+X+X+X+X+X+X+X+X+XC.5.>.>.2.+.F +X",
"+X/.j.>.>.>.>.,.h.J.+X+X+X+X+X+X+X+X+X+X+X+X+XA.5.>.>.>.2.:.K +X",
"+X!.t.>.>.>.>.>.,.g.+X+X+X+X+X+X+X+X+X+X+X+XS.6.>.>.>.>.>.2.U +X",
"+XY.w.>.>.>.>.>.>.>.u.M.+X+X+X+X+X+X+X+X+Xl.>.>.>.>.>.>.>.4.T +X",
"+XI.w.>.>.>.>.>.>.>.>.p.B.+X+X+X+X+X+X+Xc.>.>.>.>.>.>.>.>.4.I +X",
"+XP.r.>.>.>.>.>.>.>.>.>.s.F.+X+X+X+X+XV.,.>.>.>.>.>.>.>.2.1.G +X",
"+XL.i.>.>.>.>.>.>.>.>.>.,.h.G.+X+X+XA.5.>.>.>.>.>.>.>.>.2.#.V +X",
"+XW.p.>.>.>.>.>.>.>.>.>.>.,.p.Q.).U.6.>.>.>.>.>.>.>.>.>.4.{ s +X",
"+X(.d.>.>.>.>.>.>.>.>.>.>.>.>.y.f.6.>.>.>.>.>.>.>.>.>.>.4.W 5 +X",
"+X+Xk.4.>.>.>.>.>.>.>.>.>.>.>.>.>.>.>.>.>.>.>.>.>.>.>.2.X.N ; +X",
"+X+Xn.7.>.>.>.>.>.>.>.>.>.>.>.>.>.>.>.>.>.>.>.>.>.>.>.1.^ 7 < +X",
"+X+XE.=.4.>.>.>.>.>.>.>.>.>.>.>.>.>.>.>.>.>.>.>.>.>.2.o.k & z +X",
"+X+X+XE &.2.>.>.>.>.>.>.>.>.>.>.>.>.>.>.>.>.>.>.>.>.0.! 3 , `.+X",
"+X+X+X}.Y O.4.>.>.>.>.>.>.>.>.>.>.>.>.>.>.>.>.>.>.q.' i - c +X+X",
"+X+X+X+XT.J } <.>.>.>.>.>.>.>.>.>.>.>.>.>.>.>.2.-.( y o t +X+X+X",
"+X+X+X+X+XM A _ %.4.2.>.>.>.>.>.>.>.>.>.>.2.3...L 6   0 +X+X+X+X",
"+X+X+X+X+X+Xm l P ] ;.8.4.2.>.>.>.2.2.8.9.@.) j 2 X 1 '.+X+X+X+X",
"+X+X+X+X+X+X+X+Xd f H / | ;.8.q.q.8.$.[ Q Z u # = e ].+X+X+X+X+X",
"+X+X+X+X+X+X+X+X[.x 9 8 a h C D S B g p 4 $ * w b +X+X+X+X+X+X+X",
"+X+X+X+X+X+X+X+X+X+X{.v q : % @ @ + . O > r n +X+X+X+X+X+X+X+X+X",
"+X+X+X+X+X+X+X+X+X+X+X+X+X+X+X+X+X+X+X+X+X+X+X+X+X+X+X+X+X+X+X+X",
"+X+X+X+X+X+X+X+X+X+X+X+X+X+X+X+X+X+X+X+X+X+X+X+X+X+X+X+X+X+X+X+X",
"+X+X+X+X+X+X+X+X+X+X+X+X+X+X+X+X+X+X+X+X+X+X+X+X+X+X+X+X+X+X+X+X",
"+X+X+X+X+X+X+X+X+X+X+X+X+X+X+X+X+X+X+X+X+X+X+X+X+X+X+X+X+X+X+X+X"
};
