/* XPM */
static char *d2FsbA__[] = {
/* columns rows colors chars-per-pixel */
"32 32 5 1 ",
"  c #43403E",
". c #595652",
"X c #696A6A",
"o c #847E87",
"O c None",
/* pixels */
"OOOOOOOOOOOOOOOOOOOOOOOOOOOOOOOO",
"...... .................XX....OO",
"X..   .XXXXXooooooooXXXXXX.XXXOO",
"XXX. .XXooooooooooooooooooXXooOO",
"XXX..XXXoooooooooooooooooooXooOO",
"XXX..XXXoooooooooXooooooooooooOO",
"XXX. .XXXoooooooXXooooooooooooOO",
"X..   ..XXooooXXX.XoooooooooooOO",
". ................XXXXX.......OO",
"..XXXXXX....... ..............OO",
"ooooooooooooXXX....   .XX..XXoOO",
"ooooooooooooooooXXX. .XoXXXoooOO",
"oooooooooooooooooXX..XooXXooooOO",
"oooooooooooooXoooXX..XooooooooOO",
"ooooooooooooXXXoXX. .XooooooooOO",
"XooXXXoooXXXX.X...  ..XXXXXXXXOO",
"...............  ...  ........OO",
"        .........XXXX.........OO",
"....   .XXXXXooooooXXXXXXXXXXXOO",
"XXXX. .XXoooooooooooooooooooooOO",
"oXXX..XXooooooooooooooooooooooOO",
"ooXX..XXooXXoooooooooXXXXXXoooOO",
"oXX. ..XXXXooooooooooooXXoooooOO",
"X..   ....XXXXXXXXXooooooooooXOO",
". .... .............XXXXXXX...OO",
"....XX............. .......  .OO",
"XX.XXXXXooooXXXXXXX...   ....XOO",
"oXXXXoooooooooooooooXX. .XXXooOO",
"ooXooooooooooooooooooXX..XXoooOO",
"ooooooooooooooooooooXXX..XXoooOO",
"ooooooooooooooooooXXXXX. .XXooOO",
"XXooooXXXXXXXXXXXXXXXX.   .XXXOO"
};
